<svg xmlns="http://www.w3.org/2000/svg" version="1.1" xmlns:xlink="http://www.w3.org/1999/xlink" width="1000" height="1000"><style>
    #light-icon {
      display: inline;
    }
    #dark-icon {
      display: none;
    }

    @media (prefers-color-scheme: dark) {
      #light-icon {
        display: none;
      }
      #dark-icon {
        display: inline;
      }
    }
  </style><g id="light-icon"><svg xmlns="http://www.w3.org/2000/svg" version="1.1" xmlns:xlink="http://www.w3.org/1999/xlink" width="1000" height="1000"><g><g transform="matrix(2.718721113588168,0,0,2.718721113588168,30.68076776684245,0)"><svg xmlns="http://www.w3.org/2000/svg" version="1.1" xmlns:xlink="http://www.w3.org/1999/xlink" width="345.25" height="367.82"><svg id="Lager_1" data-name="Lager 1" xmlns="http://www.w3.org/2000/svg" viewBox="0 0 345.25 367.82">
  <path d="M283.49,0v186.78c0,9.4-7.62,17.01-17.01,17.01s-17.01-7.62-17.01-17.01V0h-60.4v367.82h60.4v-104.93c0-9.4,7.62-17.01,17.01-17.01h0c9.4,0,17.01,7.62,17.01,17.01v104.93h61.76V0h-61.76Z"></path>
  <path d="M52.57,314.88c0-14.09,11.43-25.52,25.52-25.52h78.09V0H0v367.82h52.57v-52.94ZM61.08,77.92c0-9.4,7.62-17.01,17.01-17.01h0c9.4,0,17.01,7.62,17.01,17.01v108.86c0,9.4-7.62,17.01-17.01,17.01h0c-9.4,0-17.01-7.62-17.01-17.01v-108.86Z"></path>
</svg></svg></g></g></svg></g><g id="dark-icon"><svg xmlns="http://www.w3.org/2000/svg" version="1.1" xmlns:xlink="http://www.w3.org/1999/xlink" width="1000" height="1000"><g><g transform="matrix(2.718721113588168,0,0,2.718721113588168,30.68076776684245,0)"><svg xmlns="http://www.w3.org/2000/svg" version="1.1" xmlns:xlink="http://www.w3.org/1999/xlink" width="345.25" height="367.82"><svg id="Lager_1" data-name="Lager 1" xmlns="http://www.w3.org/2000/svg" viewBox="0 0 345.25 367.82">
  <defs>
    <style>
      .cls-1 {
        fill: #fff;
      }
    </style>
  </defs>
  <path class="cls-1" d="M283.49,0v186.78c0,9.4-7.62,17.01-17.01,17.01s-17.01-7.62-17.01-17.01V0h-60.4v367.82h60.4v-104.93c0-9.4,7.62-17.01,17.01-17.01h0c9.4,0,17.01,7.62,17.01,17.01v104.93h61.76V0h-61.76Z"></path>
  <path class="cls-1" d="M52.57,314.88c0-14.09,11.43-25.52,25.52-25.52h78.09V0H0v367.82h52.57v-52.94ZM61.08,77.92c0-9.4,7.62-17.01,17.01-17.01h0c9.4,0,17.01,7.62,17.01,17.01v108.86c0,9.4-7.62,17.01-17.01,17.01h0c-9.4,0-17.01-7.62-17.01-17.01v-108.86Z"></path>
</svg></svg></g></g></svg></g></svg>